C:\Users\nbianco\repos\ankle-perturb-sim\results\experiments\subject19\walk2\expdata\ground_reaction_unfiltered.mot
version=1
nRows=66
nColumns=19
inDegrees=no
endheader
time	ground_force_r_vx	ground_force_r_vy	ground_force_r_vz	ground_force_r_px	ground_force_r_py	ground_force_r_pz	ground_force_l_vx	ground_force_l_vy	ground_force_l_vz	ground_force_l_px	ground_force_l_py	ground_force_l_pz	ground_torque_r_x	ground_torque_r_y	ground_torque_r_z	ground_torque_l_x	ground_torque_l_y	ground_torque_l_z
0.008333	50.244335	648.523520	-38.151321	0.821806	0.000000	-0.407667	-0.000188	-0.001361	-0.000031	-0.000027	-0.000000	0.000015	0.000000	5.291959	0.000000	0.000000	0.000000	0.000000
0.009375	50.386229	649.248211	-38.132299	0.820652	0.000000	-0.408023	-0.000261	-0.001263	-0.000004	-0.000021	-0.000000	0.000011	0.000000	5.083680	0.000000	0.000000	0.000000	0.000000
0.010417	50.527342	649.962857	-38.110350	0.819514	0.000000	-0.408373	-0.000324	-0.000984	0.000031	-0.000011	-0.000000	0.000005	0.000000	4.874436	0.000000	0.000000	0.000000	0.000000
0.011458	50.675417	650.672895	-38.080706	0.818389	0.000000	-0.408715	-0.000364	-0.000508	0.000073	0.000004	0.000000	-0.000003	0.000000	4.665315	0.000000	0.000000	0.000000	0.000000
0.012500	50.838217	651.384665	-38.039101	0.817277	0.000000	-0.409047	-0.000372	0.000162	0.000117	0.000022	0.000000	-0.000013	0.000000	4.457394	0.000000	0.000000	0.000000	0.000000
0.013542	51.023016	652.104819	-37.982132	0.816174	0.000000	-0.409366	-0.000337	0.001002	0.000160	0.000042	0.000000	-0.000024	0.000000	4.251738	0.000000	0.000000	0.000000	0.000000
0.014583	51.236209	652.839804	-37.907512	0.815075	0.000000	-0.409671	-0.000251	0.001955	0.000195	0.000063	0.000000	-0.000036	0.000000	4.049376	0.000000	0.000000	0.000000	0.000000
0.015625	51.483017	653.595451	-37.814215	0.813980	0.000000	-0.409960	-0.000111	0.002940	0.000217	0.000083	0.000000	-0.000047	0.000000	3.851297	0.000000	0.000000	0.000000	0.000000
0.016667	51.767328	654.376694	-37.702494	0.812883	0.000000	-0.410232	0.000082	0.003845	0.000218	0.000098	0.000000	-0.000055	0.000000	3.658436	0.000000	0.000000	0.000000	0.000000
0.017708	52.091644	655.187397	-37.573800	0.811785	0.000000	-0.410487	0.000319	0.004538	0.000194	0.000105	0.000000	-0.000059	0.000000	3.471664	0.000000	0.000000	0.000000	0.000000
0.018750	52.457137	656.030298	-37.430607	0.810683	0.000000	-0.410724	0.000584	0.004877	0.000139	0.000102	0.000000	-0.000056	0.000000	3.291778	0.000000	0.000000	0.000000	0.000000
0.019792	52.863770	656.907044	-37.276180	0.809576	0.000000	-0.410943	0.000852	0.004720	0.000052	0.000085	0.000000	-0.000046	0.000000	3.119496	0.000000	0.000000	0.000000	0.000000
0.020833	53.310483	657.818289	-37.114300	0.808466	0.000000	-0.411144	0.001093	0.003948	-0.000066	0.000053	0.000000	-0.000028	0.000000	2.955445	0.000000	0.000000	0.000000	0.000000
0.021875	53.795404	658.763833	-36.948995	0.807352	0.000000	-0.411326	0.001269	0.002482	-0.000209	0.000006	0.000000	-0.000001	0.000000	2.800160	0.000000	0.000000	0.000000	0.000000
0.022917	54.316061	659.742787	-36.784273	0.806235	0.000000	-0.411490	0.001340	0.000305	-0.000367	-0.000055	-0.000000	0.000033	0.000000	2.654079	0.000000	0.000000	0.000000	0.000000
0.023958	54.869599	660.753730	-36.623894	0.805116	0.000000	-0.411637	0.001270	-0.002521	-0.000524	-0.000126	-0.000000	0.000073	0.000000	2.517539	0.000000	0.000000	0.000000	0.000000
0.025000	55.452954	661.794855	-36.471188	0.803996	0.000000	-0.411766	0.001026	-0.005834	-0.000662	-0.000202	-0.000000	0.000116	0.000000	2.390775	0.000000	0.000000	0.000000	0.000000
0.026042	56.063013	662.864089	-36.328922	0.802875	0.000000	-0.411879	0.000589	-0.009370	-0.000759	-0.000275	-0.000000	0.000156	0.000000	2.273920	0.000000	0.000000	0.000000	0.000000
0.027083	56.696731	663.959185	-36.199221	0.801755	0.000000	-0.411975	-0.000041	-0.012764	-0.000791	-0.000336	-0.000000	0.000189	0.000000	2.167008	0.000000	0.000000	0.000000	0.000000
0.028125	57.351210	665.077779	-36.083539	0.800635	0.000000	-0.412055	-0.000843	-0.015565	-0.000736	-0.000372	-0.000000	0.000208	0.000000	2.069975	0.000000	0.000000	0.000000	0.000000
0.029167	58.023761	666.217418	-35.982675	0.799515	0.000000	-0.412121	-0.001768	-0.017268	-0.000577	-0.000374	-0.000000	0.000207	0.000000	1.982666	0.000000	0.000000	0.000000	0.000000
0.030208	58.711922	667.375575	-35.896818	0.798395	0.000000	-0.412173	-0.002739	-0.017358	-0.000304	-0.000331	-0.000000	0.000181	0.000000	1.904834	0.000000	0.000000	0.000000	0.000000
0.031250	59.413473	668.549632	-35.825626	0.797274	0.000000	-0.412212	-0.003651	-0.015373	0.000083	-0.000236	-0.000000	0.000125	0.000000	1.836155	0.000000	0.000000	0.000000	0.000000
0.032292	60.126426	669.736865	-35.768313	0.796153	0.000000	-0.412239	-0.004376	-0.010969	0.000569	-0.000085	-0.000000	0.000039	0.000000	1.776229	0.000000	0.000000	0.000000	0.000000
0.033333	60.849011	670.934418	-35.723747	0.795030	0.000000	-0.412255	-0.004775	-0.004001	0.001122	0.000118	0.000000	-0.000076	0.000000	1.724588	0.000000	0.000000	0.000000	0.000000
0.034375	61.579663	672.139281	-35.690548	0.793904	0.000000	-0.412262	-0.004708	0.005406	0.001694	0.000363	0.000000	-0.000214	0.000000	1.680710	0.000000	0.000000	0.000000	0.000000
0.035417	62.316997	673.348277	-35.667180	0.792776	0.000000	-0.412260	-0.004052	0.016799	0.002222	0.000634	0.000000	-0.000365	0.000000	1.644022	0.000000	0.000000	0.000000	0.000000
0.036458	63.059802	674.558051	-35.652033	0.791644	0.000000	-0.412252	-0.002721	0.029356	0.002629	0.000904	0.000000	-0.000514	0.000000	1.613913	0.000000	0.000000	0.000000	0.000000
0.037500	63.807019	675.765078	-35.643488	0.790509	0.000000	-0.412238	-0.000688	0.041885	0.002832	0.001140	0.000000	-0.000643	0.000000	1.589745	0.000000	0.000000	0.000000	0.000000
0.038542	64.557735	676.965670	-35.639983	0.789370	0.000000	-0.412219	0.001999	0.052860	0.002749	0.001304	0.000000	-0.000730	0.000000	1.570858	0.000000	0.000000	0.000000	0.000000
0.039583	65.311175	678.156004	-35.640044	0.788227	0.000000	-0.412198	0.005198	0.060519	0.002310	0.001357	0.000000	-0.000753	0.000000	1.556584	0.000000	0.000000	0.000000	0.000000
0.040625	66.066694	679.332153	-35.642325	0.787081	0.000000	-0.412175	0.008666	0.063002	0.001469	0.001261	0.000000	-0.000692	0.000000	1.546254	0.000000	0.000000	0.000000	0.000000
0.041667	66.823765	680.490116	-35.645625	0.785931	0.000000	-0.412152	0.012059	0.058557	0.000213	0.000984	0.000000	-0.000530	0.000000	1.539209	0.000000	0.000000	0.000000	0.000000
0.042708	67.581974	681.625865	-35.648895	0.784779	0.000000	-0.412129	0.014944	0.045777	-0.001422	0.000511	0.000000	-0.000258	0.000000	1.534807	0.000000	0.000000	0.000000	0.000000
0.043750	68.341003	682.735384	-35.651246	0.783626	0.000000	-0.412108	0.016830	0.023865	-0.003343	-0.000156	-0.000000	0.000121	0.000000	1.532429	0.000000	0.000000	0.000000	0.000000
0.044792	69.100618	683.814706	-35.651942	0.782472	0.000000	-0.412091	0.017209	-0.007091	-0.005399	-0.000993	-0.000000	0.000593	0.000000	1.531489	0.000000	0.000000	0.000000	0.000000
0.045833	69.860650	684.859957	-35.650392	0.781318	0.000000	-0.412077	0.015610	-0.045890	-0.007379	-0.001944	-0.000000	0.001125	0.000000	1.531442	0.000000	0.000000	0.000000	0.000000
0.046875	70.620974	685.867389	-35.646138	0.780166	0.000000	-0.412069	0.011673	-0.090048	-0.009023	-0.002928	-0.000000	0.001670	0.000000	1.531780	0.000000	0.000000	0.000000	0.000000
0.047917	71.381488	686.833411	-35.638843	0.779016	0.000000	-0.412066	0.005216	-0.135741	-0.010037	-0.003834	-0.000000	0.002168	0.000000	1.532049	0.000000	0.000000	0.000000	0.000000
0.048958	72.142094	687.754615	-35.628267	0.777870	0.000000	-0.412071	-0.003688	-0.177893	-0.010124	-0.004532	-0.000000	0.002543	0.000000	1.531842	0.000000	0.000000	0.000000	0.000000
0.050000	72.902673	688.627801	-35.614253	0.776729	0.000000	-0.412082	-0.014650	-0.210443	-0.009013	-0.004879	-0.000000	0.002717	0.000000	1.530807	0.000000	0.000000	0.000000	0.000000
0.051042	73.663072	689.449994	-35.596704	0.775593	0.000000	-0.412101	-0.026925	-0.226804	-0.006505	-0.004737	-0.000000	0.002612	0.000000	1.528646	0.000000	0.000000	0.000000	0.000000
0.052083	74.423091	690.218459	-35.575560	0.774464	0.000000	-0.412129	-0.039403	-0.220517	-0.002510	-0.003986	-0.000000	0.002165	0.000000	1.525115	0.000000	0.000000	0.000000	0.000000
0.053125	75.182470	690.930713	-35.550774	0.773343	0.000000	-0.412166	-0.050636	-0.186075	0.002901	-0.002548	-0.000000	0.001334	0.000000	1.520026	0.000000	0.000000	0.000000	0.000000
0.054167	75.940887	691.584530	-35.522290	0.772230	0.000000	-0.412211	-0.058930	-0.119859	0.009471	-0.000407	-0.000000	0.000112	0.000000	1.513243	0.000000	0.000000	0.000000	0.000000
0.055208	76.697962	692.177952	-35.490021	0.771126	0.000000	-0.412266	-0.062470	-0.021112	0.016726	0.002373	0.000000	-0.001459	0.000000	1.504681	0.000000	0.000000	0.000000	0.000000
0.056250	77.453265	692.709286	-35.453821	0.770033	0.000000	-0.412330	-0.059516	0.107160	0.023978	0.005631	0.000000	-0.003286	0.000000	1.494302	0.000000	0.000000	0.000000	0.000000
0.057292	78.206328	693.177112	-35.413469	0.768949	0.000000	-0.412404	-0.048631	0.257494	0.030347	0.009103	0.000000	-0.005218	0.000000	1.482113	0.000000	0.000000	0.000000	0.000000
0.058333	78.956662	693.580279	-35.368646	0.767877	0.000000	-0.412487	-0.028944	0.417615	0.034814	0.012424	0.000000	-0.007048	0.000000	1.468158	0.000000	0.000000	0.000000	0.000000
0.059375	79.703782	693.917902	-35.318920	0.766815	0.000000	-0.412578	-0.000412	0.570584	0.036303	0.015143	0.000000	-0.008522	0.000000	1.452519	0.000000	0.000000	0.000000	0.000000
0.060417	80.447232	694.189363	-35.263731	0.765764	0.000000	-0.412679	0.035936	0.695543	0.033803	0.016759	0.000000	-0.009359	0.000000	1.435307	0.000000	0.000000	0.000000	0.000000
0.061458	81.186605	694.394297	-35.202384	0.764725	0.000000	-0.412788	0.077828	0.769169	0.026502	0.016760	0.000000	-0.009278	0.000000	1.416657	0.000000	0.000000	0.000000	0.000000
0.062500	81.921575	694.532590	-35.134039	0.763696	0.000000	-0.412905	0.121669	0.767858	0.013952	0.014691	0.000000	-0.008027	0.000000	1.396723	0.000000	0.000000	0.000000	0.000000
0.063542	82.651919	694.604368	-35.057711	0.762677	0.000000	-0.413030	0.162615	0.670579	-0.003777	0.010223	0.000000	-0.005432	0.000000	1.375673	0.000000	0.000000	0.000000	0.000000
0.064583	83.377539	694.609979	-34.972273	0.761668	0.000000	-0.413161	0.194810	0.462278	-0.025951	0.003231	0.000000	-0.001435	0.000000	1.353686	0.000000	0.000000	0.000000	0.000000
0.065625	84.098482	694.549982	-34.876462	0.760668	0.000000	-0.413299	0.211826	0.137585	-0.051071	-0.006128	-0.000000	0.003865	0.000000	1.330941	0.000000	0.000000	0.000000	0.000000
0.066667	84.814951	694.425127	-34.768889	0.759677	0.000000	-0.413443	0.207295	-0.295513	-0.076826	-0.017347	-0.000000	0.010169	0.000000	1.307617	0.000000	0.000000	0.000000	0.000000
0.067708	85.527317	694.236332	-34.648052	0.758693	0.000000	-0.413592	0.175737	-0.812430	-0.100132	-0.029524	-0.000000	0.016958	0.000000	1.283887	0.000000	0.000000	0.000000	0.000000
0.068750	86.236122	693.984664	-34.512357	0.757715	0.000000	-0.413745	0.113516	-1.369650	-0.117275	-0.041346	-0.000000	0.023487	0.000000	1.259915	0.000000	0.000000	0.000000	0.000000
0.069792	86.942076	693.671306	-34.360132	0.756742	0.000000	-0.413902	0.019875	-1.903762	-0.124154	-0.051111	-0.000000	0.028797	0.000000	1.235852	0.000000	0.000000	0.000000	0.000000
0.070833	87.646049	693.297532	-34.189650	0.755774	0.000000	-0.414061	-0.102050	-2.332273	-0.116641	-0.056803	-0.000000	0.031759	0.000000	1.211832	0.000000	0.000000	0.000000	0.000000
0.071875	88.349061	692.864676	-33.999155	0.754809	0.000000	-0.414222	-0.244358	-2.556504	-0.091040	-0.056209	-0.000000	0.031144	0.000000	1.187971	0.000000	0.000000	0.000000	0.000000
0.072917	89.052257	692.374097	-33.786884	0.753846	0.000000	-0.414384	-0.393776	-2.466666	-0.044604	-0.047084	-0.000000	0.025716	0.000000	1.164365	0.000000	0.000000	0.000000	0.000000
0.073958	89.756892	691.827147	-33.551088	0.752883	0.000000	-0.414546	-0.531444	-1.948970	0.023910	-0.027356	-0.000000	0.014347	0.000000	1.141092	0.000000	0.000000	0.000000	0.000000
0.075000	90.464298	691.225129	-33.290064	0.751920	0.000000	-0.414708	-0.633196	-0.894326	0.113739	0.004651	0.000000	-0.003859	0.000000	1.118207	0.000000	0.000000	0.000000	0.000000
0.076042	91.175859	690.569266	-33.002174	0.750955	0.000000	-0.414868	-0.670422	0.792142	0.221695	0.050003	0.000000	-0.029444	0.000000	1.095745	0.000000	0.000000	0.000000	0.000000
